<svg width="48" height="48" viewBox="0 0 48 48" fill="none" xmlns="http://www.w3.org/2000/svg">
<circle cx="24" cy="24" r="24" fill="#EDFDFD"/>
<path d="M32.1667 13.5H18.1667C17.2384 13.5 16.3482 13.8687 15.6918 14.5251C15.0354 15.1815 14.6667 16.0717 14.6667 17V31C14.6667 31.9283 15.0354 32.8185 15.6918 33.4749C16.3482 34.1313 17.2384 34.5 18.1667 34.5H32.1667C32.4761 34.5 32.7728 34.3771 32.9916 34.1583C33.2104 33.9395 33.3333 33.6428 33.3333 33.3333V14.6667C33.3333 14.3572 33.2104 14.0605 32.9916 13.8417C32.7728 13.6229 32.4761 13.5 32.1667 13.5ZM18.1667 32.1667C17.8572 32.1667 17.5605 32.0438 17.3417 31.825C17.1229 31.6062 17 31.3094 17 31C17 30.6906 17.1229 30.3938 17.3417 30.175C17.5605 29.9562 17.8572 29.8333 18.1667 29.8333H31V32.1667H18.1667Z" fill="#009083"/>
</svg>
