<svg width="12" height="7" viewBox="0 0 12 7" fill="none" xmlns="http://www.w3.org/2000/svg">
<path d="M6 6.5C5.8684 6.50076 5.73793 6.47554 5.6161 6.42577C5.49426 6.37601 5.38344 6.30268 5.29 6.21L1.29 2.21C1.19676 2.11676 1.1228 2.00607 1.07234 1.88425C1.02188 1.76243 0.995911 1.63186 0.995911 1.5C0.995911 1.36814 1.02188 1.23757 1.07234 1.11575C1.1228 0.99393 1.19676 0.88324 1.29 0.790002C1.38324 0.696763 1.49393 0.622802 1.61575 0.572342C1.73758 0.521882 1.86814 0.495911 2 0.495911C2.13186 0.495911 2.26243 0.521882 2.38425 0.572342C2.50607 0.622802 2.61676 0.696763 2.71 0.790002L6 4.1L9.3 0.920002C9.39199 0.817712 9.5041 0.735503 9.62931 0.678517C9.75453 0.621531 9.89015 0.590994 10.0277 0.588815C10.1653 0.586635 10.3018 0.612861 10.4287 0.665852C10.5557 0.718843 10.6703 0.797459 10.7655 0.896784C10.8607 0.996108 10.9344 1.114 10.9819 1.2431C11.0295 1.37219 11.0499 1.50971 11.0418 1.64704C11.0338 1.78438 10.9975 1.91858 10.9353 2.04126C10.873 2.16393 10.7861 2.27244 10.68 2.36L6.68 6.22C6.49713 6.39632 6.25401 6.49643 6 6.5Z" fill="#141414"/>
</svg>
