<svg width="48" height="48" viewBox="0 0 48 48" fill="none" xmlns="http://www.w3.org/2000/svg">
<circle cx="24" cy="24" r="24" fill="#EDFDFD"/>
<path d="M34.5 15.0633C34.325 14.9243 34.1201 14.8277 33.9015 14.7812C33.6829 14.7346 33.4565 14.7394 33.24 14.795L25.1667 16.8717V33.52L33.9867 31.2567C34.3021 31.1759 34.5815 30.9919 34.7802 30.734C34.979 30.476 35.0857 30.159 35.0833 29.8333V16.2067C35.0797 15.9842 35.0253 15.7656 34.9242 15.5674C34.8231 15.3692 34.678 15.1968 34.5 15.0633Z" fill="#009083"/>
<path d="M22.8333 16.8717L14.7367 14.795C14.5235 14.7456 14.3021 14.7441 14.0882 14.7905C13.8744 14.8369 13.6735 14.9301 13.5 15.0633C13.3232 15.2016 13.1806 15.3788 13.0835 15.5811C12.9864 15.7835 12.9373 16.0056 12.94 16.23V29.8333C12.9402 30.157 13.0481 30.4713 13.2467 30.7269C13.4452 30.9825 13.7231 31.1647 14.0367 31.245L22.8333 33.52V16.8717Z" fill="#009083"/>
</svg>
