<svg width="16" height="16" viewBox="0 0 16 16" fill="none" xmlns="http://www.w3.org/2000/svg">
<path d="M9.64505 8.00001L14.6617 2.99501C14.8814 2.77533 15.0048 2.47736 15.0048 2.16668C15.0048 1.85599 14.8814 1.55803 14.6617 1.33835C14.442 1.11866 14.1441 0.995239 13.8334 0.995239C13.5227 0.995239 13.2247 1.11866 13.0051 1.33835L8.00005 6.35501L2.99505 1.33835C2.77536 1.11866 2.4774 0.995239 2.16672 0.995239C1.85603 0.995239 1.55807 1.11866 1.33838 1.33835C1.1187 1.55803 0.995277 1.85599 0.995277 2.16668C0.995277 2.47736 1.1187 2.77533 1.33838 2.99501L6.35505 8.00001L1.33838 13.005C1.22903 13.1135 1.14224 13.2425 1.08301 13.3847C1.02378 13.5268 0.993286 13.6793 0.993286 13.8333C0.993286 13.9874 1.02378 14.1398 1.08301 14.282C1.14224 14.4242 1.22903 14.5532 1.33838 14.6617C1.44684 14.771 1.57588 14.8578 1.71804 14.9171C1.86021 14.9763 2.0127 15.0068 2.16672 15.0068C2.32073 15.0068 2.47322 14.9763 2.61539 14.9171C2.75756 14.8578 2.88659 14.771 2.99505 14.6617L8.00005 9.64501L13.0051 14.6617C13.1135 14.771 13.2425 14.8578 13.3847 14.9171C13.5269 14.9763 13.6794 15.0068 13.8334 15.0068C13.9874 15.0068 14.1399 14.9763 14.2821 14.9171C14.4242 14.8578 14.5533 14.771 14.6617 14.6617C14.7711 14.5532 14.8579 14.4242 14.9171 14.282C14.9763 14.1398 15.0068 13.9874 15.0068 13.8333C15.0068 13.6793 14.9763 13.5268 14.9171 13.3847C14.8579 13.2425 14.7711 13.1135 14.6617 13.005L9.64505 8.00001Z" fill="white"/>
</svg>
