<svg width="48" height="48" viewBox="0 0 48 48" fill="none" xmlns="http://www.w3.org/2000/svg">
<circle cx="24" cy="24" r="24" fill="#EDFDFD"/>
<path d="M31 14.6666H29.8333V13.5C29.8333 13.1906 29.7104 12.8938 29.4916 12.675C29.2728 12.4562 28.9761 12.3333 28.6667 12.3333C28.3572 12.3333 28.0605 12.4562 27.8417 12.675C27.6229 12.8938 27.5 13.1906 27.5 13.5V14.6666H20.5V13.5C20.5 13.1906 20.3771 12.8938 20.1583 12.675C19.9395 12.4562 19.6428 12.3333 19.3333 12.3333C19.0239 12.3333 18.7272 12.4562 18.5084 12.675C18.2896 12.8938 18.1667 13.1906 18.1667 13.5V14.6666H17C16.0717 14.6666 15.1815 15.0354 14.5251 15.6918C13.8687 16.3482 13.5 17.2384 13.5 18.1666V32.1666C13.5 33.0949 13.8687 33.9851 14.5251 34.6415C15.1815 35.2979 16.0717 35.6666 17 35.6666H31C31.9283 35.6666 32.8185 35.2979 33.4749 34.6415C34.1313 33.9851 34.5 33.0949 34.5 32.1666V18.1666C34.5 17.2384 34.1313 16.3482 33.4749 15.6918C32.8185 15.0354 31.9283 14.6666 31 14.6666ZM19.3333 29.8333C19.1026 29.8333 18.877 29.7649 18.6852 29.6367C18.4933 29.5085 18.3438 29.3263 18.2555 29.1131C18.1672 28.8999 18.1441 28.6654 18.1891 28.439C18.2341 28.2127 18.3452 28.0049 18.5084 27.8417C18.6715 27.6785 18.8794 27.5674 19.1057 27.5224C19.332 27.4774 19.5666 27.5005 19.7798 27.5888C19.993 27.6771 20.1752 27.8266 20.3034 28.0185C20.4316 28.2103 20.5 28.4359 20.5 28.6666C20.5 28.9761 20.3771 29.2728 20.1583 29.4916C19.9395 29.7104 19.6428 29.8333 19.3333 29.8333ZM28.6667 29.8333H24C23.6906 29.8333 23.3938 29.7104 23.175 29.4916C22.9562 29.2728 22.8333 28.9761 22.8333 28.6666C22.8333 28.3572 22.9562 28.0605 23.175 27.8417C23.3938 27.6229 23.6906 27.5 24 27.5H28.6667C28.9761 27.5 29.2728 27.6229 29.4916 27.8417C29.7104 28.0605 29.8333 28.3572 29.8333 28.6666C29.8333 28.9761 29.7104 29.2728 29.4916 29.4916C29.2728 29.7104 28.9761 29.8333 28.6667 29.8333ZM32.1667 22.8333H15.8333V18.1666C15.8333 17.8572 15.9562 17.5605 16.175 17.3417C16.3938 17.1229 16.6906 17 17 17H18.1667V18.1666C18.1667 18.4761 18.2896 18.7728 18.5084 18.9916C18.7272 19.2104 19.0239 19.3333 19.3333 19.3333C19.6428 19.3333 19.9395 19.2104 20.1583 18.9916C20.3771 18.7728 20.5 18.4761 20.5 18.1666V17H27.5V18.1666C27.5 18.4761 27.6229 18.7728 27.8417 18.9916C28.0605 19.2104 28.3572 19.3333 28.6667 19.3333C28.9761 19.3333 29.2728 19.2104 29.4916 18.9916C29.7104 18.7728 29.8333 18.4761 29.8333 18.1666V17H31C31.3094 17 31.6062 17.1229 31.825 17.3417C32.0438 17.5605 32.1667 17.8572 32.1667 18.1666V22.8333Z" fill="#009083"/>
</svg>
