<svg width="160" height="64" viewBox="0 0 160 64" fill="none" xmlns="http://www.w3.org/2000/svg">
<path d="M72.9639 33.7627H76.8111L75.3413 27.4167C75.241 27.0829 75.1697 26.7412 75.1282 26.3952C75.0851 26.1118 75.0642 25.8256 75.0657 25.539C75.0391 26.1799 74.9152 26.813 74.6983 27.4167L72.9639 33.7627ZM78.8248 41.8945L77.6636 37.6063H71.9276L70.6011 41.8945H63.7811L71.6373 20.3689H79.0857L86.5487 41.9128L78.8248 41.8945Z" fill="#009083"/>
<path fill-rule="evenodd" clip-rule="evenodd" d="M37.9048 37.2094C38.2576 37.1028 38.592 36.9963 38.897 36.875C39.202 36.7538 39.4923 36.6325 39.7348 36.5076L41.1385 41.0714C40.5138 41.3773 39.8722 41.6473 39.2167 41.8798C38.5178 42.1293 37.8049 42.3379 37.0817 42.5045C36.3361 42.6769 35.5817 42.8094 34.8219 42.9013C34.0525 42.9941 33.2782 43.0408 32.5032 43.0409C31.0216 43.0678 29.5463 42.8404 28.1415 42.3685C26.9176 41.9503 25.8096 41.249 24.9079 40.3218C24.1671 39.5454 23.581 38.635 23.1809 37.6393C22.9619 37.2269 22.7882 36.792 22.6627 36.3422C21.7059 32.9994 21.7866 29.4449 22.8942 26.149C23.2972 24.8674 23.9857 23.6939 24.9079 22.7169C25.8099 21.7908 26.9178 21.0908 28.1415 20.6739C29.5475 20.2071 31.0219 19.9797 32.5032 20.0014C33.2801 19.993 34.0561 20.0545 34.8219 20.1851C35.5892 20.2775 36.3509 20.4112 37.1038 20.5857C37.8497 20.7694 38.5516 20.9678 39.2387 21.2103C39.8967 21.4365 40.5387 21.7066 41.1605 22.0188L39.7568 26.5826C39.4846 26.4447 39.2049 26.322 38.919 26.2151C38.614 26.0938 38.2943 25.9873 37.9269 25.8807C37.5594 25.7742 37.192 25.6823 36.8246 25.5904L36.8245 25.5904C36.4571 25.4986 36.0859 25.4177 35.7221 25.3589C35.666 25.3499 35.6102 25.3407 35.5546 25.3316C35.25 25.2817 34.954 25.2331 34.6712 25.2083C34.3679 25.1675 34.0623 25.1466 33.7563 25.1458C33.0647 25.1404 32.3778 25.2586 31.7279 25.4949C31.1469 25.7037 30.6372 26.0733 30.2581 26.5605C29.8287 27.1426 29.527 27.8087 29.3725 28.5154C29.1281 29.4986 29.0047 30.508 29.005 31.5212V31.5653V31.613C29.0036 32.625 29.127 33.6334 29.3725 34.6152C29.5232 35.323 29.8253 35.9899 30.2581 36.57C30.6385 37.0567 31.1477 37.4272 31.7279 37.6393C32.3737 37.8575 33.0528 37.9607 33.7342 37.9443C34.0098 37.9443 34.3148 37.9259 34.6492 37.8818C34.6853 37.8771 34.7215 37.8723 34.758 37.8675C35.0591 37.828 35.3723 37.7869 35.7001 37.7312C36.0676 37.6687 36.435 37.5916 36.8025 37.4997C36.8548 37.4866 36.9074 37.4735 36.9602 37.4604C37.2782 37.3814 37.6023 37.3008 37.9048 37.2094ZM11.7236 32.7117C11.8154 33.0792 11.8926 33.4466 11.9367 33.748C11.9795 34.0301 12.0004 34.3151 11.9992 34.6005C12.0005 34.3139 12.0313 34.0282 12.091 33.748C12.1627 33.3975 12.2547 33.0515 12.3666 32.7117L16.133 20.3689H22.9089L14.4868 41.8945H8.16658L0.449997 20.3689H8.18496L11.7236 32.7117ZM48.0834 35.486H53.4519V28.791L48.0834 35.486ZM59.842 40.432V44H53.4482V40.432H43.1595L41.9064 35.8535L52.9963 22.4413H59.8787V35.3648H63.7848L62.0872 40.432H59.842Z" fill="#1F1F1F"/>
</svg>
