<svg width="28" height="28" viewBox="0 0 28 28" fill="none" xmlns="http://www.w3.org/2000/svg">
<path d="M23.3917 12.8333H4.60833C3.99622 12.8333 3.5 13.3295 3.5 13.9417V14.0583C3.5 14.6704 3.99622 15.1667 4.60833 15.1667H23.3917C24.0038 15.1667 24.5 14.6704 24.5 14.0583V13.9417C24.5 13.3295 24.0038 12.8333 23.3917 12.8333Z" fill="#141414"/>
<path d="M23.3917 18.6667H4.60833C3.99622 18.6667 3.5 19.1629 3.5 19.775V19.8917C3.5 20.5038 3.99622 21 4.60833 21H23.3917C24.0038 21 24.5 20.5038 24.5 19.8917V19.775C24.5 19.1629 24.0038 18.6667 23.3917 18.6667Z" fill="#141414"/>
<path d="M23.3917 7H4.60833C3.99622 7 3.5 7.49622 3.5 8.10833V8.225C3.5 8.83712 3.99622 9.33333 4.60833 9.33333H23.3917C24.0038 9.33333 24.5 8.83712 24.5 8.225V8.10833C24.5 7.49622 24.0038 7 23.3917 7Z" fill="#141414"/>
</svg>
