<svg width="48" height="48" viewBox="0 0 48 48" fill="none" xmlns="http://www.w3.org/2000/svg">
<circle cx="24" cy="24" r="24" fill="#EDFDFD"/>
<path d="M23.125 23.8017L13.5 19.7533V28.7717C13.5051 29.1477 13.6176 29.5145 13.8243 29.8287C14.031 30.1429 14.3233 30.3915 14.6667 30.545L23.055 34.5H23.125V23.8017Z" fill="#009083"/>
<path d="M24 22.25L33.9283 18.085C33.7612 17.8994 33.559 17.7487 33.3333 17.6417L24.9333 13.71C24.6416 13.5719 24.3228 13.5003 24 13.5003C23.6772 13.5003 23.3584 13.5719 23.0667 13.71L14.6667 17.6417C14.441 17.7487 14.2388 17.8994 14.0717 18.085L24 22.25Z" fill="#009083"/>
<path d="M24.875 23.8017V34.5H24.9333L33.3333 30.545C33.6749 30.3923 33.966 30.1456 34.1726 29.8336C34.3792 29.5217 34.4927 29.1574 34.5 28.7833V19.7533L24.875 23.8017Z" fill="#009083"/>
</svg>
