<svg width="48" height="48" viewBox="0 0 48 48" fill="none" xmlns="http://www.w3.org/2000/svg">
<circle cx="24" cy="24" r="24" fill="#EDFDFD"/>
<path d="M18.1667 34.5H29.8333V18.1667H28.6667V16.4167C28.6667 15.6431 28.3594 14.9013 27.8124 14.3543C27.2654 13.8073 26.5235 13.5 25.75 13.5H22.25C21.4764 13.5 20.7346 13.8073 20.1876 14.3543C19.6406 14.9013 19.3333 15.6431 19.3333 16.4167V18.1667H18.1667V34.5ZM21.6667 16.4167C21.6667 16.262 21.7281 16.1136 21.8375 16.0042C21.9469 15.8948 22.0953 15.8333 22.25 15.8333H25.75C25.9047 15.8333 26.0531 15.8948 26.1625 16.0042C26.2719 16.1136 26.3333 16.262 26.3333 16.4167V18.1667H21.6667V16.4167Z" fill="#009083"/>
<path d="M32.1667 18.1667V34.5C33.0949 34.5 33.9852 34.1312 34.6415 33.4749C35.2979 32.8185 35.6667 31.9282 35.6667 31V21.6667C35.6667 20.7384 35.2979 19.8482 34.6415 19.1918C33.9852 18.5354 33.0949 18.1667 32.1667 18.1667Z" fill="#009083"/>
<path d="M15.8333 18.1667C14.9051 18.1667 14.0148 18.5354 13.3585 19.1918C12.7021 19.8482 12.3333 20.7384 12.3333 21.6667V31C12.3333 31.9282 12.7021 32.8185 13.3585 33.4749C14.0148 34.1312 14.9051 34.5 15.8333 34.5V18.1667Z" fill="#009083"/>
</svg>
